%TF.GenerationSoftware,KiCad,Pcbnew,8.0.3*%
%TF.CreationDate,2024-07-16T13:50:52-06:00*%
%TF.ProjectId,SolarTelescope_LED_PCB,536f6c61-7254-4656-9c65-73636f70655f,1.0*%
%TF.SameCoordinates,Original*%
%TF.FileFunction,Soldermask,Bot*%
%TF.FilePolarity,Negative*%
%FSLAX46Y46*%
G04 Gerber Fmt 4.6, Leading zero omitted, Abs format (unit mm)*
G04 Created by KiCad (PCBNEW 8.0.3) date 2024-07-16 13:50:52*
%MOMM*%
%LPD*%
G01*
G04 APERTURE LIST*
%ADD10R,1.800000X1.800000*%
%ADD11C,1.800000*%
%ADD12C,5.500000*%
%ADD13R,1.600000X1.600000*%
%ADD14O,1.600000X1.600000*%
%ADD15R,2.600000X2.600000*%
%ADD16C,2.600000*%
%ADD17R,2.000000X2.000000*%
%ADD18C,2.000000*%
G04 APERTURE END LIST*
D10*
%TO.C,D6*%
X134858635Y-67410000D03*
D11*
X137398635Y-67410000D03*
%TD*%
D10*
%TO.C,D12*%
X207595000Y-67410000D03*
D11*
X210135000Y-67410000D03*
%TD*%
D10*
%TO.C,D1*%
X74245000Y-67410000D03*
D11*
X76785000Y-67410000D03*
%TD*%
D12*
%TO.C,REF\u002A\u002A*%
X69850000Y-57150000D03*
%TD*%
%TO.C,REF\u002A\u002A*%
X207010000Y-57150000D03*
%TD*%
D13*
%TO.C,U1*%
X90420000Y-88730000D03*
D14*
X90420000Y-91270000D03*
X90420000Y-93810000D03*
X90420000Y-96350000D03*
X90420000Y-98890000D03*
X90420000Y-101430000D03*
X90420000Y-103970000D03*
X98040000Y-103970000D03*
X98040000Y-101430000D03*
X98040000Y-98890000D03*
X98040000Y-96350000D03*
X98040000Y-93810000D03*
X98040000Y-91270000D03*
X98040000Y-88730000D03*
%TD*%
D10*
%TO.C,D2*%
X86367727Y-67410000D03*
D11*
X88907727Y-67410000D03*
%TD*%
D10*
%TO.C,D5*%
X122735908Y-67410000D03*
D11*
X125275908Y-67410000D03*
%TD*%
D13*
%TO.C,U2*%
X134195000Y-88730000D03*
D14*
X134195000Y-91270000D03*
X134195000Y-93810000D03*
X134195000Y-96350000D03*
X134195000Y-98890000D03*
X134195000Y-101430000D03*
X134195000Y-103970000D03*
X141815000Y-103970000D03*
X141815000Y-101430000D03*
X141815000Y-98890000D03*
X141815000Y-96350000D03*
X141815000Y-93810000D03*
X141815000Y-91270000D03*
X141815000Y-88730000D03*
%TD*%
D10*
%TO.C,D10*%
X183349543Y-67410000D03*
D11*
X185889543Y-67410000D03*
%TD*%
D10*
%TO.C,D7*%
X146981362Y-67410000D03*
D11*
X149521362Y-67410000D03*
%TD*%
D13*
%TO.C,U3*%
X177970000Y-88730000D03*
D14*
X177970000Y-91270000D03*
X177970000Y-93810000D03*
X177970000Y-96350000D03*
X177970000Y-98890000D03*
X177970000Y-101430000D03*
X177970000Y-103970000D03*
X185590000Y-103970000D03*
X185590000Y-101430000D03*
X185590000Y-98890000D03*
X185590000Y-96350000D03*
X185590000Y-93810000D03*
X185590000Y-91270000D03*
X185590000Y-88730000D03*
%TD*%
D12*
%TO.C,REF\u002A\u002A*%
X207010000Y-107950000D03*
%TD*%
D10*
%TO.C,D11*%
X195472270Y-67410000D03*
D11*
X198012270Y-67410000D03*
%TD*%
D12*
%TO.C,REF\u002A\u002A*%
X69850000Y-107950000D03*
%TD*%
D10*
%TO.C,D3*%
X98490454Y-67410000D03*
D11*
X101030454Y-67410000D03*
%TD*%
D10*
%TO.C,D4*%
X110613181Y-67410000D03*
D11*
X113153181Y-67410000D03*
%TD*%
D10*
%TO.C,D9*%
X171226816Y-67410000D03*
D11*
X173766816Y-67410000D03*
%TD*%
D10*
%TO.C,D8*%
X159104089Y-67410000D03*
D11*
X161644089Y-67410000D03*
%TD*%
D15*
%TO.C,J1*%
X75565000Y-96520000D03*
D16*
X75565000Y-91440000D03*
X75565000Y-86360000D03*
X75565000Y-81280000D03*
X75565000Y-76200000D03*
%TD*%
D17*
%TO.C,C1*%
X81280000Y-106680000D03*
D18*
X76280000Y-106680000D03*
%TD*%
M02*
