%TF.GenerationSoftware,KiCad,Pcbnew,8.0.3*%
%TF.CreationDate,2024-07-16T13:50:52-06:00*%
%TF.ProjectId,SolarTelescope_LED_PCB,536f6c61-7254-4656-9c65-73636f70655f,1.0*%
%TF.SameCoordinates,Original*%
%TF.FileFunction,Legend,Bot*%
%TF.FilePolarity,Positive*%
%FSLAX46Y46*%
G04 Gerber Fmt 4.6, Leading zero omitted, Abs format (unit mm)*
G04 Created by KiCad (PCBNEW 8.0.3) date 2024-07-16 13:50:52*
%MOMM*%
%LPD*%
G01*
G04 APERTURE LIST*
%ADD10C,0.150000*%
%ADD11C,0.120000*%
G04 APERTURE END LIST*
D10*
X75313333Y-71644819D02*
X75313333Y-72359104D01*
X75313333Y-72359104D02*
X75360952Y-72501961D01*
X75360952Y-72501961D02*
X75456190Y-72597200D01*
X75456190Y-72597200D02*
X75599047Y-72644819D01*
X75599047Y-72644819D02*
X75694285Y-72644819D01*
X74313333Y-72644819D02*
X74884761Y-72644819D01*
X74599047Y-72644819D02*
X74599047Y-71644819D01*
X74599047Y-71644819D02*
X74694285Y-71787676D01*
X74694285Y-71787676D02*
X74789523Y-71882914D01*
X74789523Y-71882914D02*
X74884761Y-71930533D01*
X78946666Y-100789580D02*
X78994285Y-100837200D01*
X78994285Y-100837200D02*
X79137142Y-100884819D01*
X79137142Y-100884819D02*
X79232380Y-100884819D01*
X79232380Y-100884819D02*
X79375237Y-100837200D01*
X79375237Y-100837200D02*
X79470475Y-100741961D01*
X79470475Y-100741961D02*
X79518094Y-100646723D01*
X79518094Y-100646723D02*
X79565713Y-100456247D01*
X79565713Y-100456247D02*
X79565713Y-100313390D01*
X79565713Y-100313390D02*
X79518094Y-100122914D01*
X79518094Y-100122914D02*
X79470475Y-100027676D01*
X79470475Y-100027676D02*
X79375237Y-99932438D01*
X79375237Y-99932438D02*
X79232380Y-99884819D01*
X79232380Y-99884819D02*
X79137142Y-99884819D01*
X79137142Y-99884819D02*
X78994285Y-99932438D01*
X78994285Y-99932438D02*
X78946666Y-99980057D01*
X77994285Y-100884819D02*
X78565713Y-100884819D01*
X78279999Y-100884819D02*
X78279999Y-99884819D01*
X78279999Y-99884819D02*
X78375237Y-100027676D01*
X78375237Y-100027676D02*
X78470475Y-100122914D01*
X78470475Y-100122914D02*
X78565713Y-100170533D01*
D11*
%TO.C,J1*%
X69965000Y-98860000D02*
X69965000Y-99360000D01*
X69965000Y-99360000D02*
X70705000Y-99360000D01*
X70205000Y-73600000D02*
X70205000Y-99120000D01*
X70205000Y-73600000D02*
X81525000Y-73600000D01*
X70205000Y-99120000D02*
X81525000Y-99120000D01*
X70765000Y-73600000D02*
X70765000Y-99120000D01*
X73265000Y-73600000D02*
X73265000Y-99120000D01*
X73911000Y-77587000D02*
X74291000Y-77207000D01*
X73911000Y-82667000D02*
X74291000Y-82287000D01*
X73911000Y-87747000D02*
X74291000Y-87367000D01*
X73911000Y-92827000D02*
X74291000Y-92447000D01*
X73911000Y-97908000D02*
X74018000Y-97802000D01*
X74177000Y-77853000D02*
X74573000Y-77458000D01*
X74177000Y-82933000D02*
X74573000Y-82538000D01*
X74177000Y-88013000D02*
X74573000Y-87618000D01*
X74177000Y-93093000D02*
X74573000Y-92698000D01*
X74177000Y-98174000D02*
X74284000Y-98068000D01*
X76557000Y-74941000D02*
X76953000Y-74546000D01*
X76557000Y-80021000D02*
X76953000Y-79626000D01*
X76557000Y-85101000D02*
X76953000Y-84706000D01*
X76557000Y-90181000D02*
X76953000Y-89786000D01*
X76839000Y-75192000D02*
X77219000Y-74812000D01*
X76839000Y-80272000D02*
X77219000Y-79892000D01*
X76839000Y-85352000D02*
X77219000Y-84972000D01*
X76839000Y-90432000D02*
X77219000Y-90052000D01*
X76846000Y-94973000D02*
X76953000Y-94866000D01*
X77112000Y-95239000D02*
X77219000Y-95132000D01*
X79465000Y-73600000D02*
X79465000Y-99120000D01*
X81525000Y-73600000D02*
X81525000Y-99120000D01*
X77745000Y-76200000D02*
G75*
G02*
X73385000Y-76200000I-2180000J0D01*
G01*
X73385000Y-76200000D02*
G75*
G02*
X77745000Y-76200000I2180000J0D01*
G01*
X77745000Y-81280000D02*
G75*
G02*
X73385000Y-81280000I-2180000J0D01*
G01*
X73385000Y-81280000D02*
G75*
G02*
X77745000Y-81280000I2180000J0D01*
G01*
X77745000Y-86360000D02*
G75*
G02*
X73385000Y-86360000I-2180000J0D01*
G01*
X73385000Y-86360000D02*
G75*
G02*
X77745000Y-86360000I2180000J0D01*
G01*
X77745000Y-91440000D02*
G75*
G02*
X73385000Y-91440000I-2180000J0D01*
G01*
X73385000Y-91440000D02*
G75*
G02*
X77745000Y-91440000I2180000J0D01*
G01*
X77745000Y-96520000D02*
G75*
G02*
X73385000Y-96520000I-2180000J0D01*
G01*
X73385000Y-96520000D02*
G75*
G02*
X77745000Y-96520000I2180000J0D01*
G01*
%TO.C,C1*%
X73699000Y-107279000D02*
X73699000Y-106081000D01*
X73739000Y-107542000D02*
X73739000Y-105818000D01*
X73779000Y-107742000D02*
X73779000Y-105618000D01*
X73819000Y-107910000D02*
X73819000Y-105450000D01*
X73859000Y-108058000D02*
X73859000Y-105302000D01*
X73899000Y-108190000D02*
X73899000Y-105170000D01*
X73939000Y-108310000D02*
X73939000Y-105050000D01*
X73979000Y-108422000D02*
X73979000Y-104938000D01*
X74019000Y-108526000D02*
X74019000Y-104834000D01*
X74059000Y-108624000D02*
X74059000Y-104736000D01*
X74099000Y-108717000D02*
X74099000Y-104643000D01*
X74139000Y-108805000D02*
X74139000Y-104555000D01*
X74179000Y-108889000D02*
X74179000Y-104471000D01*
X74219000Y-108969000D02*
X74219000Y-104391000D01*
X74259000Y-109045000D02*
X74259000Y-104315000D01*
X74299000Y-109119000D02*
X74299000Y-104241000D01*
X74339000Y-109190000D02*
X74339000Y-104170000D01*
X74379000Y-109259000D02*
X74379000Y-104101000D01*
X74419000Y-109325000D02*
X74419000Y-104035000D01*
X74459000Y-109389000D02*
X74459000Y-103971000D01*
X74499000Y-109450000D02*
X74499000Y-103910000D01*
X74539000Y-109510000D02*
X74539000Y-103850000D01*
X74579000Y-109569000D02*
X74579000Y-103791000D01*
X74619000Y-109625000D02*
X74619000Y-103735000D01*
X74659000Y-109680000D02*
X74659000Y-103680000D01*
X74699000Y-109734000D02*
X74699000Y-103626000D01*
X74739000Y-109786000D02*
X74739000Y-103574000D01*
X74779000Y-109836000D02*
X74779000Y-103524000D01*
X74819000Y-109886000D02*
X74819000Y-103474000D01*
X74859000Y-109934000D02*
X74859000Y-103426000D01*
X74899000Y-109981000D02*
X74899000Y-103379000D01*
X74939000Y-110027000D02*
X74939000Y-103333000D01*
X74979000Y-110072000D02*
X74979000Y-103288000D01*
X75019000Y-110116000D02*
X75019000Y-103244000D01*
X75059000Y-105439000D02*
X75059000Y-103202000D01*
X75059000Y-110158000D02*
X75059000Y-107921000D01*
X75099000Y-105439000D02*
X75099000Y-103160000D01*
X75099000Y-110200000D02*
X75099000Y-107921000D01*
X75139000Y-105439000D02*
X75139000Y-103119000D01*
X75139000Y-110241000D02*
X75139000Y-107921000D01*
X75179000Y-105439000D02*
X75179000Y-103079000D01*
X75179000Y-110281000D02*
X75179000Y-107921000D01*
X75219000Y-105439000D02*
X75219000Y-103040000D01*
X75219000Y-110320000D02*
X75219000Y-107921000D01*
X75259000Y-105439000D02*
X75259000Y-103001000D01*
X75259000Y-110359000D02*
X75259000Y-107921000D01*
X75299000Y-105439000D02*
X75299000Y-102964000D01*
X75299000Y-110396000D02*
X75299000Y-107921000D01*
X75339000Y-105439000D02*
X75339000Y-102927000D01*
X75339000Y-110433000D02*
X75339000Y-107921000D01*
X75379000Y-105439000D02*
X75379000Y-102891000D01*
X75379000Y-110469000D02*
X75379000Y-107921000D01*
X75419000Y-105439000D02*
X75419000Y-102856000D01*
X75419000Y-110504000D02*
X75419000Y-107921000D01*
X75459000Y-105439000D02*
X75459000Y-102822000D01*
X75459000Y-110538000D02*
X75459000Y-107921000D01*
X75499000Y-105439000D02*
X75499000Y-102788000D01*
X75499000Y-110572000D02*
X75499000Y-107921000D01*
X75539000Y-105439000D02*
X75539000Y-102755000D01*
X75539000Y-110605000D02*
X75539000Y-107921000D01*
X75579000Y-105439000D02*
X75579000Y-102723000D01*
X75579000Y-110637000D02*
X75579000Y-107921000D01*
X75619000Y-105439000D02*
X75619000Y-102691000D01*
X75619000Y-110669000D02*
X75619000Y-107921000D01*
X75659000Y-105439000D02*
X75659000Y-102660000D01*
X75659000Y-110700000D02*
X75659000Y-107921000D01*
X75699000Y-105439000D02*
X75699000Y-102630000D01*
X75699000Y-110730000D02*
X75699000Y-107921000D01*
X75739000Y-105439000D02*
X75739000Y-102600000D01*
X75739000Y-110760000D02*
X75739000Y-107921000D01*
X75779000Y-105439000D02*
X75779000Y-102570000D01*
X75779000Y-110790000D02*
X75779000Y-107921000D01*
X75819000Y-105439000D02*
X75819000Y-102542000D01*
X75819000Y-110818000D02*
X75819000Y-107921000D01*
X75859000Y-105439000D02*
X75859000Y-102514000D01*
X75859000Y-110846000D02*
X75859000Y-107921000D01*
X75899000Y-105439000D02*
X75899000Y-102486000D01*
X75899000Y-110874000D02*
X75899000Y-107921000D01*
X75939000Y-105439000D02*
X75939000Y-102459000D01*
X75939000Y-110901000D02*
X75939000Y-107921000D01*
X75979000Y-105439000D02*
X75979000Y-102433000D01*
X75979000Y-110927000D02*
X75979000Y-107921000D01*
X76019000Y-105439000D02*
X76019000Y-102407000D01*
X76019000Y-110953000D02*
X76019000Y-107921000D01*
X76059000Y-105439000D02*
X76059000Y-102382000D01*
X76059000Y-110978000D02*
X76059000Y-107921000D01*
X76099000Y-105439000D02*
X76099000Y-102357000D01*
X76099000Y-111003000D02*
X76099000Y-107921000D01*
X76139000Y-105439000D02*
X76139000Y-102333000D01*
X76139000Y-111027000D02*
X76139000Y-107921000D01*
X76179000Y-105439000D02*
X76179000Y-102309000D01*
X76179000Y-111051000D02*
X76179000Y-107921000D01*
X76219000Y-105439000D02*
X76219000Y-102285000D01*
X76219000Y-111075000D02*
X76219000Y-107921000D01*
X76259000Y-105439000D02*
X76259000Y-102263000D01*
X76259000Y-111097000D02*
X76259000Y-107921000D01*
X76299000Y-105439000D02*
X76299000Y-102240000D01*
X76299000Y-111120000D02*
X76299000Y-107921000D01*
X76339000Y-105439000D02*
X76339000Y-102218000D01*
X76339000Y-111142000D02*
X76339000Y-107921000D01*
X76379000Y-105439000D02*
X76379000Y-102197000D01*
X76379000Y-111163000D02*
X76379000Y-107921000D01*
X76419000Y-105439000D02*
X76419000Y-102176000D01*
X76419000Y-111184000D02*
X76419000Y-107921000D01*
X76459000Y-105439000D02*
X76459000Y-102155000D01*
X76459000Y-111205000D02*
X76459000Y-107921000D01*
X76499000Y-105439000D02*
X76499000Y-102135000D01*
X76499000Y-111225000D02*
X76499000Y-107921000D01*
X76539000Y-105439000D02*
X76539000Y-102116000D01*
X76539000Y-111244000D02*
X76539000Y-107921000D01*
X76579000Y-105439000D02*
X76579000Y-102096000D01*
X76579000Y-111264000D02*
X76579000Y-107921000D01*
X76619000Y-105439000D02*
X76619000Y-102077000D01*
X76619000Y-111283000D02*
X76619000Y-107921000D01*
X76659000Y-105439000D02*
X76659000Y-102059000D01*
X76659000Y-111301000D02*
X76659000Y-107921000D01*
X76699000Y-105439000D02*
X76699000Y-102041000D01*
X76699000Y-111319000D02*
X76699000Y-107921000D01*
X76739000Y-105439000D02*
X76739000Y-102023000D01*
X76739000Y-111337000D02*
X76739000Y-107921000D01*
X76779000Y-105439000D02*
X76779000Y-102006000D01*
X76779000Y-111354000D02*
X76779000Y-107921000D01*
X76819000Y-105439000D02*
X76819000Y-101990000D01*
X76819000Y-111370000D02*
X76819000Y-107921000D01*
X76859000Y-105439000D02*
X76859000Y-101973000D01*
X76859000Y-111387000D02*
X76859000Y-107921000D01*
X76899000Y-105439000D02*
X76899000Y-101957000D01*
X76899000Y-111403000D02*
X76899000Y-107921000D01*
X76939000Y-105439000D02*
X76939000Y-101942000D01*
X76939000Y-111418000D02*
X76939000Y-107921000D01*
X76979000Y-105439000D02*
X76979000Y-101926000D01*
X76979000Y-111434000D02*
X76979000Y-107921000D01*
X77019000Y-105439000D02*
X77019000Y-101912000D01*
X77019000Y-111448000D02*
X77019000Y-107921000D01*
X77059000Y-105439000D02*
X77059000Y-101897000D01*
X77059000Y-111463000D02*
X77059000Y-107921000D01*
X77099000Y-105439000D02*
X77099000Y-101883000D01*
X77099000Y-111477000D02*
X77099000Y-107921000D01*
X77139000Y-105439000D02*
X77139000Y-101869000D01*
X77139000Y-111491000D02*
X77139000Y-107921000D01*
X77179000Y-105439000D02*
X77179000Y-101856000D01*
X77179000Y-111504000D02*
X77179000Y-107921000D01*
X77219000Y-105439000D02*
X77219000Y-101843000D01*
X77219000Y-111517000D02*
X77219000Y-107921000D01*
X77259000Y-105439000D02*
X77259000Y-101830000D01*
X77259000Y-111530000D02*
X77259000Y-107921000D01*
X77299000Y-105439000D02*
X77299000Y-101818000D01*
X77299000Y-111542000D02*
X77299000Y-107921000D01*
X77339000Y-105439000D02*
X77339000Y-101806000D01*
X77339000Y-111554000D02*
X77339000Y-107921000D01*
X77379000Y-105439000D02*
X77379000Y-101795000D01*
X77379000Y-111565000D02*
X77379000Y-107921000D01*
X77419000Y-105439000D02*
X77419000Y-101783000D01*
X77419000Y-111577000D02*
X77419000Y-107921000D01*
X77459000Y-105439000D02*
X77459000Y-101773000D01*
X77459000Y-111587000D02*
X77459000Y-107921000D01*
X77499000Y-105439000D02*
X77499000Y-101762000D01*
X77499000Y-111598000D02*
X77499000Y-107921000D01*
X77539000Y-111608000D02*
X77539000Y-101752000D01*
X77579000Y-111618000D02*
X77579000Y-101742000D01*
X77619000Y-111627000D02*
X77619000Y-101733000D01*
X77659000Y-111636000D02*
X77659000Y-101724000D01*
X77699000Y-111645000D02*
X77699000Y-101715000D01*
X77739000Y-111654000D02*
X77739000Y-101706000D01*
X77779000Y-111662000D02*
X77779000Y-101698000D01*
X77819000Y-111670000D02*
X77819000Y-101690000D01*
X77859000Y-111677000D02*
X77859000Y-101683000D01*
X77899000Y-111684000D02*
X77899000Y-101676000D01*
X77939000Y-111691000D02*
X77939000Y-101669000D01*
X77979000Y-111698000D02*
X77979000Y-101662000D01*
X78019000Y-111704000D02*
X78019000Y-101656000D01*
X78059000Y-111710000D02*
X78059000Y-101650000D01*
X78100000Y-111715000D02*
X78100000Y-101645000D01*
X78140000Y-111720000D02*
X78140000Y-101640000D01*
X78180000Y-111725000D02*
X78180000Y-101635000D01*
X78220000Y-111730000D02*
X78220000Y-101630000D01*
X78260000Y-111734000D02*
X78260000Y-101626000D01*
X78300000Y-111738000D02*
X78300000Y-101622000D01*
X78340000Y-111742000D02*
X78340000Y-101618000D01*
X78380000Y-111745000D02*
X78380000Y-101615000D01*
X78420000Y-111748000D02*
X78420000Y-101612000D01*
X78460000Y-111750000D02*
X78460000Y-101610000D01*
X78500000Y-111753000D02*
X78500000Y-101607000D01*
X78540000Y-111755000D02*
X78540000Y-101605000D01*
X78580000Y-111757000D02*
X78580000Y-101603000D01*
X78620000Y-111758000D02*
X78620000Y-101602000D01*
X78660000Y-111759000D02*
X78660000Y-101601000D01*
X78700000Y-111760000D02*
X78700000Y-101600000D01*
X78740000Y-111760000D02*
X78740000Y-101600000D01*
X78780000Y-111760000D02*
X78780000Y-101600000D01*
X83259646Y-103805000D02*
X84259646Y-103805000D01*
X83759646Y-104305000D02*
X83759646Y-103305000D01*
X83900000Y-106680000D02*
G75*
G02*
X73660000Y-106680000I-5120000J0D01*
G01*
X73660000Y-106680000D02*
G75*
G02*
X83900000Y-106680000I5120000J0D01*
G01*
%TD*%
M02*
