%TF.GenerationSoftware,KiCad,Pcbnew,8.0.3*%
%TF.CreationDate,2024-07-16T13:50:52-06:00*%
%TF.ProjectId,SolarTelescope_LED_PCB,536f6c61-7254-4656-9c65-73636f70655f,1.0*%
%TF.SameCoordinates,Original*%
%TF.FileFunction,Copper,L2,Bot*%
%TF.FilePolarity,Positive*%
%FSLAX46Y46*%
G04 Gerber Fmt 4.6, Leading zero omitted, Abs format (unit mm)*
G04 Created by KiCad (PCBNEW 8.0.3) date 2024-07-16 13:50:52*
%MOMM*%
%LPD*%
G01*
G04 APERTURE LIST*
%TA.AperFunction,ComponentPad*%
%ADD10R,1.800000X1.800000*%
%TD*%
%TA.AperFunction,ComponentPad*%
%ADD11C,1.800000*%
%TD*%
%TA.AperFunction,ComponentPad*%
%ADD12C,5.500000*%
%TD*%
%TA.AperFunction,ComponentPad*%
%ADD13R,1.600000X1.600000*%
%TD*%
%TA.AperFunction,ComponentPad*%
%ADD14O,1.600000X1.600000*%
%TD*%
%TA.AperFunction,ComponentPad*%
%ADD15R,2.600000X2.600000*%
%TD*%
%TA.AperFunction,ComponentPad*%
%ADD16C,2.600000*%
%TD*%
%TA.AperFunction,ComponentPad*%
%ADD17R,2.000000X2.000000*%
%TD*%
%TA.AperFunction,ComponentPad*%
%ADD18C,2.000000*%
%TD*%
%TA.AperFunction,ViaPad*%
%ADD19C,0.600000*%
%TD*%
%TA.AperFunction,Conductor*%
%ADD20C,0.200000*%
%TD*%
G04 APERTURE END LIST*
D10*
%TO.P,D6,1,K*%
%TO.N,GND*%
X134858635Y-67410000D03*
D11*
%TO.P,D6,2,A*%
%TO.N,Net-(D6-A)*%
X137398635Y-67410000D03*
%TD*%
D10*
%TO.P,D12,1,K*%
%TO.N,GND*%
X207595000Y-67410000D03*
D11*
%TO.P,D12,2,A*%
%TO.N,Net-(D12-A)*%
X210135000Y-67410000D03*
%TD*%
D10*
%TO.P,D1,1,K*%
%TO.N,GND*%
X74245000Y-67410000D03*
D11*
%TO.P,D1,2,A*%
%TO.N,Net-(D1-A)*%
X76785000Y-67410000D03*
%TD*%
D12*
%TO.P,REF\u002A\u002A,1*%
%TO.N,N/C*%
X69850000Y-57150000D03*
%TD*%
%TO.P,REF\u002A\u002A,1*%
%TO.N,N/C*%
X207010000Y-57150000D03*
%TD*%
D13*
%TO.P,U1,1*%
%TO.N,Net-(R14-Pad1)*%
X90420000Y-88730000D03*
D14*
%TO.P,U1,2,-*%
%TO.N,Net-(U1A--)*%
X90420000Y-91270000D03*
%TO.P,U1,3,+*%
%TO.N,Vin*%
X90420000Y-93810000D03*
%TO.P,U1,4,V+*%
%TO.N,+15VDC*%
X90420000Y-96350000D03*
%TO.P,U1,5,+*%
%TO.N,Vin*%
X90420000Y-98890000D03*
%TO.P,U1,6,-*%
%TO.N,Net-(U1B--)*%
X90420000Y-101430000D03*
%TO.P,U1,7*%
%TO.N,Net-(R15-Pad1)*%
X90420000Y-103970000D03*
%TO.P,U1,8*%
%TO.N,Net-(R16-Pad1)*%
X98040000Y-103970000D03*
%TO.P,U1,9,-*%
%TO.N,Net-(U1C--)*%
X98040000Y-101430000D03*
%TO.P,U1,10,+*%
%TO.N,Vin*%
X98040000Y-98890000D03*
%TO.P,U1,11,V-*%
%TO.N,GND*%
X98040000Y-96350000D03*
%TO.P,U1,12,+*%
%TO.N,Vin*%
X98040000Y-93810000D03*
%TO.P,U1,13,-*%
%TO.N,Net-(U1D--)*%
X98040000Y-91270000D03*
%TO.P,U1,14*%
%TO.N,Net-(R17-Pad1)*%
X98040000Y-88730000D03*
%TD*%
D10*
%TO.P,D2,1,K*%
%TO.N,GND*%
X86367727Y-67410000D03*
D11*
%TO.P,D2,2,A*%
%TO.N,Net-(D2-A)*%
X88907727Y-67410000D03*
%TD*%
D10*
%TO.P,D5,1,K*%
%TO.N,GND*%
X122735908Y-67410000D03*
D11*
%TO.P,D5,2,A*%
%TO.N,Net-(D5-A)*%
X125275908Y-67410000D03*
%TD*%
D13*
%TO.P,U2,1*%
%TO.N,Net-(R18-Pad1)*%
X134195000Y-88730000D03*
D14*
%TO.P,U2,2,-*%
%TO.N,Net-(U2A--)*%
X134195000Y-91270000D03*
%TO.P,U2,3,+*%
%TO.N,Vin*%
X134195000Y-93810000D03*
%TO.P,U2,4,V+*%
%TO.N,+15VDC*%
X134195000Y-96350000D03*
%TO.P,U2,5,+*%
%TO.N,Vin*%
X134195000Y-98890000D03*
%TO.P,U2,6,-*%
%TO.N,Net-(U2B--)*%
X134195000Y-101430000D03*
%TO.P,U2,7*%
%TO.N,Net-(R19-Pad1)*%
X134195000Y-103970000D03*
%TO.P,U2,8*%
%TO.N,Net-(R20-Pad1)*%
X141815000Y-103970000D03*
%TO.P,U2,9,-*%
%TO.N,Net-(U2C--)*%
X141815000Y-101430000D03*
%TO.P,U2,10,+*%
%TO.N,Vin*%
X141815000Y-98890000D03*
%TO.P,U2,11,V-*%
%TO.N,GND*%
X141815000Y-96350000D03*
%TO.P,U2,12,+*%
%TO.N,Vin*%
X141815000Y-93810000D03*
%TO.P,U2,13,-*%
%TO.N,Net-(U2D--)*%
X141815000Y-91270000D03*
%TO.P,U2,14*%
%TO.N,Net-(R21-Pad1)*%
X141815000Y-88730000D03*
%TD*%
D10*
%TO.P,D10,1,K*%
%TO.N,GND*%
X183349543Y-67410000D03*
D11*
%TO.P,D10,2,A*%
%TO.N,Net-(D10-A)*%
X185889543Y-67410000D03*
%TD*%
D10*
%TO.P,D7,1,K*%
%TO.N,GND*%
X146981362Y-67410000D03*
D11*
%TO.P,D7,2,A*%
%TO.N,Net-(D7-A)*%
X149521362Y-67410000D03*
%TD*%
D13*
%TO.P,U3,1*%
%TO.N,Net-(R22-Pad1)*%
X177970000Y-88730000D03*
D14*
%TO.P,U3,2,-*%
%TO.N,Net-(U3A--)*%
X177970000Y-91270000D03*
%TO.P,U3,3,+*%
%TO.N,Vin*%
X177970000Y-93810000D03*
%TO.P,U3,4,V+*%
%TO.N,+15VDC*%
X177970000Y-96350000D03*
%TO.P,U3,5,+*%
%TO.N,Vin*%
X177970000Y-98890000D03*
%TO.P,U3,6,-*%
%TO.N,Net-(U3B--)*%
X177970000Y-101430000D03*
%TO.P,U3,7*%
%TO.N,Net-(R23-Pad1)*%
X177970000Y-103970000D03*
%TO.P,U3,8*%
%TO.N,Net-(R24-Pad1)*%
X185590000Y-103970000D03*
%TO.P,U3,9,-*%
%TO.N,Net-(U3C--)*%
X185590000Y-101430000D03*
%TO.P,U3,10,+*%
%TO.N,Vin*%
X185590000Y-98890000D03*
%TO.P,U3,11,V-*%
%TO.N,GND*%
X185590000Y-96350000D03*
%TO.P,U3,12,+*%
%TO.N,Vin*%
X185590000Y-93810000D03*
%TO.P,U3,13,-*%
%TO.N,Net-(U3D--)*%
X185590000Y-91270000D03*
%TO.P,U3,14*%
%TO.N,Net-(R25-Pad1)*%
X185590000Y-88730000D03*
%TD*%
D12*
%TO.P,REF\u002A\u002A,1*%
%TO.N,N/C*%
X207010000Y-107950000D03*
%TD*%
D10*
%TO.P,D11,1,K*%
%TO.N,GND*%
X195472270Y-67410000D03*
D11*
%TO.P,D11,2,A*%
%TO.N,Net-(D11-A)*%
X198012270Y-67410000D03*
%TD*%
D12*
%TO.P,REF\u002A\u002A,1*%
%TO.N,N/C*%
X69850000Y-107950000D03*
%TD*%
D10*
%TO.P,D3,1,K*%
%TO.N,GND*%
X98490454Y-67410000D03*
D11*
%TO.P,D3,2,A*%
%TO.N,Net-(D3-A)*%
X101030454Y-67410000D03*
%TD*%
D10*
%TO.P,D4,1,K*%
%TO.N,GND*%
X110613181Y-67410000D03*
D11*
%TO.P,D4,2,A*%
%TO.N,Net-(D4-A)*%
X113153181Y-67410000D03*
%TD*%
D10*
%TO.P,D9,1,K*%
%TO.N,GND*%
X171226816Y-67410000D03*
D11*
%TO.P,D9,2,A*%
%TO.N,Net-(D9-A)*%
X173766816Y-67410000D03*
%TD*%
D10*
%TO.P,D8,1,K*%
%TO.N,GND*%
X159104089Y-67410000D03*
D11*
%TO.P,D8,2,A*%
%TO.N,Net-(D8-A)*%
X161644089Y-67410000D03*
%TD*%
D15*
%TO.P,J1,1,Pin_1*%
%TO.N,Vin*%
X75565000Y-96520000D03*
D16*
%TO.P,J1,2,Pin_2*%
%TO.N,+15VDC*%
X75565000Y-91440000D03*
%TO.P,J1,3,Pin_3*%
X75565000Y-86360000D03*
%TO.P,J1,4,Pin_4*%
%TO.N,GND*%
X75565000Y-81280000D03*
%TO.P,J1,5,Pin_5*%
X75565000Y-76200000D03*
%TD*%
D17*
%TO.P,C1,1*%
%TO.N,+15VDC*%
X81280000Y-106680000D03*
D18*
%TO.P,C1,2*%
%TO.N,GND*%
X76280000Y-106680000D03*
%TD*%
D19*
%TO.N,GND*%
X194895000Y-88700000D03*
%TD*%
D20*
%TO.N,Vin*%
X177970000Y-98890000D02*
X185590000Y-98890000D01*
X141815000Y-98890000D02*
X177970000Y-98890000D01*
X134195000Y-98890000D02*
X141815000Y-98890000D01*
X98040000Y-98890000D02*
X134195000Y-98890000D01*
X90420000Y-98890000D02*
X98040000Y-98890000D01*
X77935000Y-98890000D02*
X90420000Y-98890000D01*
X75565000Y-96520000D02*
X77935000Y-98890000D01*
%TO.N,+15VDC*%
X75565000Y-86360000D02*
X75565000Y-91440000D01*
%TO.N,GND*%
X73515000Y-103915000D02*
X76280000Y-106680000D01*
X73515000Y-78250000D02*
X73515000Y-103915000D01*
X75565000Y-76200000D02*
X73515000Y-78250000D01*
X195472270Y-88122730D02*
X194895000Y-88700000D01*
X99215006Y-95174994D02*
X99215006Y-67410000D01*
X98040000Y-96350000D02*
X99215006Y-95174994D01*
X147560458Y-67410000D02*
X147560458Y-90604542D01*
X194895000Y-88700000D02*
X187245000Y-96350000D01*
X195472270Y-67410000D02*
X195472270Y-88122730D01*
X147560458Y-90604542D02*
X141815000Y-96350000D01*
X187245000Y-96350000D02*
X185590000Y-96350000D01*
%TO.N,+15VDC*%
X73915000Y-99315000D02*
X73915000Y-92840000D01*
X81280000Y-106680000D02*
X73915000Y-99315000D01*
X176870000Y-97450000D02*
X177970000Y-96350000D01*
X133095000Y-97450000D02*
X134195000Y-96350000D01*
X90420000Y-96350000D02*
X91520000Y-97450000D01*
X90420000Y-96350000D02*
X80625000Y-96350000D01*
X80625000Y-96350000D02*
X75515000Y-91240000D01*
X73915000Y-92840000D02*
X75515000Y-91240000D01*
X134195000Y-96350000D02*
X135295000Y-97450000D01*
X135295000Y-97450000D02*
X176870000Y-97450000D01*
X91520000Y-97450000D02*
X133095000Y-97450000D01*
%TO.N,Vin*%
X98040000Y-93810000D02*
X90420000Y-93810000D01*
X184490000Y-94910000D02*
X184490000Y-97790000D01*
X141815000Y-93810000D02*
X134195000Y-93810000D01*
X184490000Y-97790000D02*
X185590000Y-98890000D01*
X179070000Y-97790000D02*
X177970000Y-98890000D01*
X179070000Y-94910000D02*
X179070000Y-97790000D01*
X185590000Y-93810000D02*
X184490000Y-94910000D01*
X177970000Y-93810000D02*
X179070000Y-94910000D01*
%TD*%
M02*
