%TF.GenerationSoftware,KiCad,Pcbnew,8.0.3*%
%TF.CreationDate,2024-08-15T08:53:42-06:00*%
%TF.ProjectId,SolarTelescope_LED_PCB,536f6c61-7254-4656-9c65-73636f70655f,2.0*%
%TF.SameCoordinates,Original*%
%TF.FileFunction,Copper,L1,Top*%
%TF.FilePolarity,Positive*%
%FSLAX46Y46*%
G04 Gerber Fmt 4.6, Leading zero omitted, Abs format (unit mm)*
G04 Created by KiCad (PCBNEW 8.0.3) date 2024-08-15 08:53:42*
%MOMM*%
%LPD*%
G01*
G04 APERTURE LIST*
G04 Aperture macros list*
%AMRoundRect*
0 Rectangle with rounded corners*
0 $1 Rounding radius*
0 $2 $3 $4 $5 $6 $7 $8 $9 X,Y pos of 4 corners*
0 Add a 4 corners polygon primitive as box body*
4,1,4,$2,$3,$4,$5,$6,$7,$8,$9,$2,$3,0*
0 Add four circle primitives for the rounded corners*
1,1,$1+$1,$2,$3*
1,1,$1+$1,$4,$5*
1,1,$1+$1,$6,$7*
1,1,$1+$1,$8,$9*
0 Add four rect primitives between the rounded corners*
20,1,$1+$1,$2,$3,$4,$5,0*
20,1,$1+$1,$4,$5,$6,$7,0*
20,1,$1+$1,$6,$7,$8,$9,0*
20,1,$1+$1,$8,$9,$2,$3,0*%
G04 Aperture macros list end*
%TA.AperFunction,SMDPad,CuDef*%
%ADD10RoundRect,0.250000X0.450000X-0.350000X0.450000X0.350000X-0.450000X0.350000X-0.450000X-0.350000X0*%
%TD*%
%TA.AperFunction,SMDPad,CuDef*%
%ADD11RoundRect,0.250000X-0.450000X0.350000X-0.450000X-0.350000X0.450000X-0.350000X0.450000X0.350000X0*%
%TD*%
%TA.AperFunction,ComponentPad*%
%ADD12R,1.800000X1.800000*%
%TD*%
%TA.AperFunction,ComponentPad*%
%ADD13C,1.800000*%
%TD*%
%TA.AperFunction,ComponentPad*%
%ADD14C,5.500000*%
%TD*%
%TA.AperFunction,ComponentPad*%
%ADD15R,1.600000X1.600000*%
%TD*%
%TA.AperFunction,ComponentPad*%
%ADD16O,1.600000X1.600000*%
%TD*%
%TA.AperFunction,ComponentPad*%
%ADD17R,2.000000X2.000000*%
%TD*%
%TA.AperFunction,ComponentPad*%
%ADD18C,2.000000*%
%TD*%
%TA.AperFunction,ComponentPad*%
%ADD19R,2.600000X2.600000*%
%TD*%
%TA.AperFunction,ComponentPad*%
%ADD20C,2.600000*%
%TD*%
%TA.AperFunction,ViaPad*%
%ADD21C,0.600000*%
%TD*%
%TA.AperFunction,Conductor*%
%ADD22C,0.200000*%
%TD*%
G04 APERTURE END LIST*
D10*
%TO.P,R4,1*%
%TO.N,Net-(U1C--)*%
X114935000Y-91170000D03*
%TO.P,R4,2*%
%TO.N,Net-(U1D--)*%
X114935000Y-89170000D03*
%TD*%
%TO.P,R8,1*%
%TO.N,Net-(U2C--)*%
X148215000Y-93210000D03*
%TO.P,R8,2*%
%TO.N,Net-(U2D--)*%
X148215000Y-91210000D03*
%TD*%
D11*
%TO.P,R2,1*%
%TO.N,Net-(U1A--)*%
X91440000Y-97425000D03*
%TO.P,R2,2*%
%TO.N,Net-(U1B--)*%
X91440000Y-99425000D03*
%TD*%
D12*
%TO.P,D6,1,K*%
%TO.N,GND*%
X134858635Y-67410000D03*
D13*
%TO.P,D6,2,A*%
%TO.N,Net-(D6-A)*%
X137398635Y-67410000D03*
%TD*%
D10*
%TO.P,R3,1*%
%TO.N,Net-(U1B--)*%
X114935000Y-102330000D03*
%TO.P,R3,2*%
%TO.N,Net-(U1C--)*%
X114935000Y-100330000D03*
%TD*%
D12*
%TO.P,D12,1,K*%
%TO.N,GND*%
X207595000Y-67410000D03*
D13*
%TO.P,D12,2,A*%
%TO.N,Net-(D12-A)*%
X210135000Y-67410000D03*
%TD*%
D12*
%TO.P,D1,1,K*%
%TO.N,GND*%
X74245000Y-67410000D03*
D13*
%TO.P,D1,2,A*%
%TO.N,Net-(D1-A)*%
X76785000Y-67410000D03*
%TD*%
D14*
%TO.P,REF\u002A\u002A,1*%
%TO.N,N/C*%
X69850000Y-57150000D03*
%TD*%
%TO.P,REF\u002A\u002A,1*%
%TO.N,N/C*%
X207010000Y-57150000D03*
%TD*%
D10*
%TO.P,R22,1*%
%TO.N,Net-(R22-Pad1)*%
X174575000Y-76730000D03*
%TO.P,R22,2*%
%TO.N,Net-(D9-A)*%
X174575000Y-74730000D03*
%TD*%
%TO.P,R13,1*%
%TO.N,Net-(U3D--)*%
X192415000Y-91210000D03*
%TO.P,R13,2*%
%TO.N,Vbottom*%
X192415000Y-89210000D03*
%TD*%
%TO.P,R24,1*%
%TO.N,Net-(R24-Pad1)*%
X197435000Y-76730000D03*
%TO.P,R24,2*%
%TO.N,Net-(D11-A)*%
X197435000Y-74730000D03*
%TD*%
%TO.P,R16,1*%
%TO.N,Net-(R16-Pad1)*%
X100915000Y-77000000D03*
%TO.P,R16,2*%
%TO.N,Net-(D3-A)*%
X100915000Y-75000000D03*
%TD*%
%TO.P,R15,1*%
%TO.N,Net-(R15-Pad1)*%
X89485000Y-76730000D03*
%TO.P,R15,2*%
%TO.N,Net-(D2-A)*%
X89485000Y-74730000D03*
%TD*%
D15*
%TO.P,U1,1*%
%TO.N,Net-(R14-Pad1)*%
X101600000Y-88730000D03*
D16*
%TO.P,U1,2,-*%
%TO.N,Net-(U1A--)*%
X101600000Y-91270000D03*
%TO.P,U1,3,+*%
%TO.N,Vin*%
X101600000Y-93810000D03*
%TO.P,U1,4,V+*%
%TO.N,+Vcc*%
X101600000Y-96350000D03*
%TO.P,U1,5,+*%
%TO.N,Vin*%
X101600000Y-98890000D03*
%TO.P,U1,6,-*%
%TO.N,Net-(U1B--)*%
X101600000Y-101430000D03*
%TO.P,U1,7*%
%TO.N,Net-(R15-Pad1)*%
X101600000Y-103970000D03*
%TO.P,U1,8*%
%TO.N,Net-(R16-Pad1)*%
X109220000Y-103970000D03*
%TO.P,U1,9,-*%
%TO.N,Net-(U1C--)*%
X109220000Y-101430000D03*
%TO.P,U1,10,+*%
%TO.N,Vin*%
X109220000Y-98890000D03*
%TO.P,U1,11,V-*%
%TO.N,-Vcc*%
X109220000Y-96350000D03*
%TO.P,U1,12,+*%
%TO.N,Vin*%
X109220000Y-93810000D03*
%TO.P,U1,13,-*%
%TO.N,Net-(U1D--)*%
X109220000Y-91270000D03*
%TO.P,U1,14*%
%TO.N,Net-(R17-Pad1)*%
X109220000Y-88730000D03*
%TD*%
D11*
%TO.P,R9,1*%
%TO.N,Net-(U2D--)*%
X172815000Y-89210000D03*
%TO.P,R9,2*%
%TO.N,Net-(U3A--)*%
X172815000Y-91210000D03*
%TD*%
D10*
%TO.P,R21,1*%
%TO.N,Net-(R21-Pad1)*%
X160605000Y-77000000D03*
%TO.P,R21,2*%
%TO.N,Net-(D8-A)*%
X160605000Y-75000000D03*
%TD*%
%TO.P,R18,1*%
%TO.N,Net-(R18-Pad1)*%
X126315000Y-77270000D03*
%TO.P,R18,2*%
%TO.N,Net-(D5-A)*%
X126315000Y-75270000D03*
%TD*%
D12*
%TO.P,D2,1,K*%
%TO.N,GND*%
X86367727Y-67410000D03*
D13*
%TO.P,D2,2,A*%
%TO.N,Net-(D2-A)*%
X88907727Y-67410000D03*
%TD*%
D10*
%TO.P,R25,1*%
%TO.N,Net-(R25-Pad1)*%
X210135000Y-76730000D03*
%TO.P,R25,2*%
%TO.N,Net-(D12-A)*%
X210135000Y-74730000D03*
%TD*%
D12*
%TO.P,D5,1,K*%
%TO.N,GND*%
X122735908Y-67410000D03*
D13*
%TO.P,D5,2,A*%
%TO.N,Net-(D5-A)*%
X125275908Y-67410000D03*
%TD*%
D10*
%TO.P,R19,1*%
%TO.N,Net-(R19-Pad1)*%
X137745000Y-76730000D03*
%TO.P,R19,2*%
%TO.N,Net-(D6-A)*%
X137745000Y-74730000D03*
%TD*%
D15*
%TO.P,U2,1*%
%TO.N,Net-(R18-Pad1)*%
X134195000Y-88730000D03*
D16*
%TO.P,U2,2,-*%
%TO.N,Net-(U2A--)*%
X134195000Y-91270000D03*
%TO.P,U2,3,+*%
%TO.N,Vin*%
X134195000Y-93810000D03*
%TO.P,U2,4,V+*%
%TO.N,+Vcc*%
X134195000Y-96350000D03*
%TO.P,U2,5,+*%
%TO.N,Vin*%
X134195000Y-98890000D03*
%TO.P,U2,6,-*%
%TO.N,Net-(U2B--)*%
X134195000Y-101430000D03*
%TO.P,U2,7*%
%TO.N,Net-(R19-Pad1)*%
X134195000Y-103970000D03*
%TO.P,U2,8*%
%TO.N,Net-(R20-Pad1)*%
X141815000Y-103970000D03*
%TO.P,U2,9,-*%
%TO.N,Net-(U2C--)*%
X141815000Y-101430000D03*
%TO.P,U2,10,+*%
%TO.N,Vin*%
X141815000Y-98890000D03*
%TO.P,U2,11,V-*%
%TO.N,-Vcc*%
X141815000Y-96350000D03*
%TO.P,U2,12,+*%
%TO.N,Vin*%
X141815000Y-93810000D03*
%TO.P,U2,13,-*%
%TO.N,Net-(U2D--)*%
X141815000Y-91270000D03*
%TO.P,U2,14*%
%TO.N,Net-(R21-Pad1)*%
X141815000Y-88730000D03*
%TD*%
D10*
%TO.P,R7,1*%
%TO.N,Net-(U2B--)*%
X148215000Y-103810000D03*
%TO.P,R7,2*%
%TO.N,Net-(U2C--)*%
X148215000Y-101810000D03*
%TD*%
%TO.P,R17,1*%
%TO.N,Net-(R17-Pad1)*%
X112345000Y-77000000D03*
%TO.P,R17,2*%
%TO.N,Net-(D4-A)*%
X112345000Y-75000000D03*
%TD*%
D12*
%TO.P,D10,1,K*%
%TO.N,GND*%
X183349543Y-67410000D03*
D13*
%TO.P,D10,2,A*%
%TO.N,Net-(D10-A)*%
X185889543Y-67410000D03*
%TD*%
D12*
%TO.P,D7,1,K*%
%TO.N,GND*%
X146981362Y-67410000D03*
D13*
%TO.P,D7,2,A*%
%TO.N,Net-(D7-A)*%
X149521362Y-67410000D03*
%TD*%
D11*
%TO.P,R10,1*%
%TO.N,Net-(U3A--)*%
X172615000Y-99210000D03*
%TO.P,R10,2*%
%TO.N,Net-(U3B--)*%
X172615000Y-101210000D03*
%TD*%
D15*
%TO.P,U3,1*%
%TO.N,Net-(R22-Pad1)*%
X177970000Y-88730000D03*
D16*
%TO.P,U3,2,-*%
%TO.N,Net-(U3A--)*%
X177970000Y-91270000D03*
%TO.P,U3,3,+*%
%TO.N,Vin*%
X177970000Y-93810000D03*
%TO.P,U3,4,V+*%
%TO.N,+Vcc*%
X177970000Y-96350000D03*
%TO.P,U3,5,+*%
%TO.N,Vin*%
X177970000Y-98890000D03*
%TO.P,U3,6,-*%
%TO.N,Net-(U3B--)*%
X177970000Y-101430000D03*
%TO.P,U3,7*%
%TO.N,Net-(R23-Pad1)*%
X177970000Y-103970000D03*
%TO.P,U3,8*%
%TO.N,Net-(R24-Pad1)*%
X185590000Y-103970000D03*
%TO.P,U3,9,-*%
%TO.N,Net-(U3C--)*%
X185590000Y-101430000D03*
%TO.P,U3,10,+*%
%TO.N,Vin*%
X185590000Y-98890000D03*
%TO.P,U3,11,V-*%
%TO.N,-Vcc*%
X185590000Y-96350000D03*
%TO.P,U3,12,+*%
%TO.N,Vin*%
X185590000Y-93810000D03*
%TO.P,U3,13,-*%
%TO.N,Net-(U3D--)*%
X185590000Y-91270000D03*
%TO.P,U3,14*%
%TO.N,Net-(R25-Pad1)*%
X185590000Y-88730000D03*
%TD*%
D11*
%TO.P,R5,1*%
%TO.N,Net-(U1D--)*%
X128415000Y-89410000D03*
%TO.P,R5,2*%
%TO.N,Net-(U2A--)*%
X128415000Y-91410000D03*
%TD*%
D14*
%TO.P,REF\u002A\u002A,1*%
%TO.N,N/C*%
X207010000Y-107950000D03*
%TD*%
D12*
%TO.P,D11,1,K*%
%TO.N,GND*%
X195472270Y-67410000D03*
D13*
%TO.P,D11,2,A*%
%TO.N,Net-(D11-A)*%
X198012270Y-67410000D03*
%TD*%
D14*
%TO.P,REF\u002A\u002A,1*%
%TO.N,N/C*%
X69850000Y-107950000D03*
%TD*%
D10*
%TO.P,R14,1*%
%TO.N,Net-(R14-Pad1)*%
X91440000Y-88265000D03*
%TO.P,R14,2*%
%TO.N,Net-(D1-A)*%
X91440000Y-86265000D03*
%TD*%
%TO.P,R12,1*%
%TO.N,Net-(U3C--)*%
X192415000Y-97210000D03*
%TO.P,R12,2*%
%TO.N,Net-(U3D--)*%
X192415000Y-95210000D03*
%TD*%
D11*
%TO.P,R1,1*%
%TO.N,Vtop*%
X91440000Y-91980000D03*
%TO.P,R1,2*%
%TO.N,Net-(U1A--)*%
X91440000Y-93980000D03*
%TD*%
%TO.P,R6,1*%
%TO.N,Net-(U2A--)*%
X128415000Y-99610000D03*
%TO.P,R6,2*%
%TO.N,Net-(U2B--)*%
X128415000Y-101610000D03*
%TD*%
D12*
%TO.P,D3,1,K*%
%TO.N,GND*%
X98490454Y-67410000D03*
D13*
%TO.P,D3,2,A*%
%TO.N,Net-(D3-A)*%
X101030454Y-67410000D03*
%TD*%
D10*
%TO.P,R11,1*%
%TO.N,Net-(U3B--)*%
X192415000Y-103610000D03*
%TO.P,R11,2*%
%TO.N,Net-(U3C--)*%
X192415000Y-101610000D03*
%TD*%
D12*
%TO.P,D4,1,K*%
%TO.N,GND*%
X110613181Y-67410000D03*
D13*
%TO.P,D4,2,A*%
%TO.N,Net-(D4-A)*%
X113153181Y-67410000D03*
%TD*%
D12*
%TO.P,D9,1,K*%
%TO.N,GND*%
X171226816Y-67410000D03*
D13*
%TO.P,D9,2,A*%
%TO.N,Net-(D9-A)*%
X173766816Y-67410000D03*
%TD*%
D10*
%TO.P,R20,1*%
%TO.N,Net-(R20-Pad1)*%
X149175000Y-76730000D03*
%TO.P,R20,2*%
%TO.N,Net-(D7-A)*%
X149175000Y-74730000D03*
%TD*%
D12*
%TO.P,D8,1,K*%
%TO.N,GND*%
X159104089Y-67410000D03*
D13*
%TO.P,D8,2,A*%
%TO.N,Net-(D8-A)*%
X161644089Y-67410000D03*
%TD*%
D10*
%TO.P,R23,1*%
%TO.N,Net-(R23-Pad1)*%
X186005000Y-76730000D03*
%TO.P,R23,2*%
%TO.N,Net-(D10-A)*%
X186005000Y-74730000D03*
%TD*%
D17*
%TO.P,C1,1*%
%TO.N,+Vcc*%
X86995000Y-108585000D03*
D18*
%TO.P,C1,2*%
%TO.N,-Vcc*%
X86995000Y-103585000D03*
%TD*%
D19*
%TO.P,J2,1,Pin_1*%
%TO.N,Vin*%
X75565000Y-100645000D03*
D20*
%TO.P,J2,2,Pin_2*%
%TO.N,+Vcc*%
X75565000Y-95645000D03*
%TO.P,J2,3,Pin_3*%
%TO.N,-Vcc*%
X75565000Y-90645000D03*
%TO.P,J2,4,Pin_4*%
%TO.N,Vtop*%
X75565000Y-85645000D03*
%TO.P,J2,5,Pin_5*%
%TO.N,Vbottom*%
X75565000Y-80645000D03*
%TO.P,J2,6,Pin_6*%
%TO.N,GND*%
X75565000Y-75645000D03*
%TD*%
D21*
%TO.N,Vbottom*%
X194310000Y-85090000D03*
%TD*%
D22*
%TO.N,Net-(D1-A)*%
X76785000Y-67410000D02*
X76785000Y-71610000D01*
X76785000Y-71610000D02*
X91440000Y-86265000D01*
%TO.N,GND*%
X83815000Y-57610000D02*
X86945000Y-57610000D01*
X74015000Y-68187280D02*
X74792280Y-67410000D01*
X86945000Y-57610000D02*
X87215000Y-57610000D01*
X123387732Y-67410000D02*
X123387732Y-57637268D01*
X198192280Y-57610000D02*
X207992280Y-67410000D01*
X159646821Y-57641821D02*
X159615000Y-57610000D01*
X74792280Y-57632720D02*
X74815000Y-57610000D01*
X109615000Y-57610000D02*
X111415000Y-57610000D01*
X111301369Y-57723631D02*
X111415000Y-57610000D01*
X170415000Y-57610000D02*
X171815000Y-57610000D01*
X99215006Y-67410000D02*
X99215006Y-57610006D01*
X135215000Y-57610000D02*
X135415000Y-57610000D01*
X135415000Y-57610000D02*
X147015000Y-57610000D01*
X159415000Y-57610000D02*
X159615000Y-57610000D01*
X183819547Y-67410000D02*
X183819547Y-57614547D01*
X123387732Y-57637268D02*
X123415000Y-57610000D01*
X198015000Y-57610000D02*
X198192280Y-57610000D01*
X74245000Y-67410000D02*
X74245000Y-74325000D01*
X171815000Y-57610000D02*
X183615000Y-57610000D01*
X74792280Y-67410000D02*
X74792280Y-57632720D01*
X147415000Y-57610000D02*
X159415000Y-57610000D01*
X195472270Y-57952730D02*
X195815000Y-57610000D01*
X99215000Y-57610000D02*
X109615000Y-57610000D01*
X111301369Y-67410000D02*
X111301369Y-57723631D01*
X87215000Y-57610000D02*
X97015000Y-57610000D01*
X97015000Y-57610000D02*
X99215000Y-57610000D01*
X74815000Y-57610000D02*
X83815000Y-57610000D01*
X123415000Y-57610000D02*
X135215000Y-57610000D01*
X99215006Y-57610006D02*
X99215000Y-57610000D01*
X195815000Y-57610000D02*
X198015000Y-57610000D01*
X147015000Y-57610000D02*
X147415000Y-57610000D01*
X135474095Y-67410000D02*
X135474095Y-57669095D01*
X86945000Y-67410000D02*
X86945000Y-57610000D01*
X111415000Y-57610000D02*
X123415000Y-57610000D01*
X135474095Y-57669095D02*
X135415000Y-57610000D01*
X159615000Y-57610000D02*
X170415000Y-57610000D01*
X159646821Y-67410000D02*
X159646821Y-57641821D01*
X195472270Y-67410000D02*
X195472270Y-57952730D01*
X147560458Y-57755458D02*
X147415000Y-57610000D01*
X183615000Y-57610000D02*
X183815000Y-57610000D01*
X147560458Y-67410000D02*
X147560458Y-57755458D01*
X171733184Y-67410000D02*
X171733184Y-57691816D01*
X183815000Y-57610000D02*
X195815000Y-57610000D01*
X171733184Y-57691816D02*
X171815000Y-57610000D01*
X183819547Y-57614547D02*
X183815000Y-57610000D01*
X74245000Y-74325000D02*
X75565000Y-75645000D01*
%TO.N,Net-(D2-A)*%
X88907727Y-74152727D02*
X89485000Y-74730000D01*
X88907727Y-67410000D02*
X88907727Y-74152727D01*
%TO.N,Net-(D3-A)*%
X100915000Y-67525454D02*
X101030454Y-67410000D01*
X100915000Y-75000000D02*
X100915000Y-67525454D01*
%TO.N,Net-(D4-A)*%
X113153181Y-74191819D02*
X112345000Y-75000000D01*
X113153181Y-67410000D02*
X113153181Y-74191819D01*
%TO.N,Net-(D5-A)*%
X126315000Y-75270000D02*
X126315000Y-68449092D01*
X126315000Y-68449092D02*
X125275908Y-67410000D01*
%TO.N,Net-(D6-A)*%
X137398635Y-74383635D02*
X137745000Y-74730000D01*
X137398635Y-67410000D02*
X137398635Y-74383635D01*
%TO.N,Net-(D7-A)*%
X149521362Y-67410000D02*
X149521362Y-74383638D01*
X149521362Y-74383638D02*
X149175000Y-74730000D01*
%TO.N,Net-(D8-A)*%
X160605000Y-68449089D02*
X160605000Y-75000000D01*
X161644089Y-67410000D02*
X160605000Y-68449089D01*
%TO.N,Net-(D9-A)*%
X173766816Y-73921816D02*
X174575000Y-74730000D01*
X173766816Y-67410000D02*
X173766816Y-73921816D01*
%TO.N,Net-(D10-A)*%
X186005000Y-74730000D02*
X186005000Y-67525457D01*
X186005000Y-67525457D02*
X185889543Y-67410000D01*
%TO.N,Net-(D11-A)*%
X197435000Y-74730000D02*
X197435000Y-67987270D01*
X197435000Y-67987270D02*
X198012270Y-67410000D01*
%TO.N,Net-(D12-A)*%
X210135000Y-67410000D02*
X210135000Y-74730000D01*
%TO.N,Net-(U1A--)*%
X91440000Y-93980000D02*
X91440000Y-97425000D01*
X91440000Y-93980000D02*
X98890000Y-93980000D01*
X98890000Y-93980000D02*
X101600000Y-91270000D01*
%TO.N,Net-(U1B--)*%
X101484365Y-105410000D02*
X111855000Y-105410000D01*
X111855000Y-105410000D02*
X114935000Y-102330000D01*
X99595000Y-99425000D02*
X101600000Y-101430000D01*
X100500000Y-102530000D02*
X100500000Y-104425635D01*
X91440000Y-99425000D02*
X99595000Y-99425000D01*
X100500000Y-104425635D02*
X101484365Y-105410000D01*
X101600000Y-101430000D02*
X100500000Y-102530000D01*
%TO.N,Net-(U1C--)*%
X113835000Y-101430000D02*
X114935000Y-100330000D01*
X109220000Y-101430000D02*
X113835000Y-101430000D01*
X114935000Y-91170000D02*
X114935000Y-100330000D01*
%TO.N,Net-(U1D--)*%
X114935000Y-89170000D02*
X128175000Y-89170000D01*
X109220000Y-91270000D02*
X112835000Y-91270000D01*
X128175000Y-89170000D02*
X128415000Y-89410000D01*
X112835000Y-91270000D02*
X114935000Y-89170000D01*
%TO.N,Net-(U2A--)*%
X134055000Y-91410000D02*
X134195000Y-91270000D01*
X128415000Y-91410000D02*
X134055000Y-91410000D01*
X128415000Y-91410000D02*
X128415000Y-99610000D01*
%TO.N,Net-(U2B--)*%
X133095000Y-102530000D02*
X134195000Y-101430000D01*
X146955000Y-105070000D02*
X133739365Y-105070000D01*
X133739365Y-105070000D02*
X133095000Y-104425635D01*
X134015000Y-101610000D02*
X134195000Y-101430000D01*
X133095000Y-104425635D02*
X133095000Y-102530000D01*
X128415000Y-101610000D02*
X134015000Y-101610000D01*
X148215000Y-103810000D02*
X146955000Y-105070000D01*
%TO.N,Net-(U2C--)*%
X147835000Y-101430000D02*
X148215000Y-101810000D01*
X141815000Y-101430000D02*
X147835000Y-101430000D01*
X148215000Y-93210000D02*
X148215000Y-101810000D01*
%TO.N,Net-(U2D--)*%
X172815000Y-89210000D02*
X150215000Y-89210000D01*
X147815000Y-91210000D02*
X147755000Y-91270000D01*
X147755000Y-91270000D02*
X141815000Y-91270000D01*
X150215000Y-89210000D02*
X148215000Y-91210000D01*
X148215000Y-91210000D02*
X147815000Y-91210000D01*
%TO.N,Net-(U3A--)*%
X172615000Y-99210000D02*
X172615000Y-91410000D01*
X172815000Y-91210000D02*
X177910000Y-91210000D01*
X172615000Y-91410000D02*
X172815000Y-91210000D01*
X177910000Y-91210000D02*
X177970000Y-91270000D01*
%TO.N,Net-(U3B--)*%
X172615000Y-101210000D02*
X177750000Y-101210000D01*
X177750000Y-101210000D02*
X177970000Y-101430000D01*
X176815000Y-102585000D02*
X177970000Y-101430000D01*
X190955000Y-105070000D02*
X177514365Y-105070000D01*
X177514365Y-105070000D02*
X176815000Y-104370635D01*
X192415000Y-103610000D02*
X190955000Y-105070000D01*
X176815000Y-104370635D02*
X176815000Y-102585000D01*
%TO.N,Net-(U3C--)*%
X192415000Y-97210000D02*
X192415000Y-101610000D01*
X192415000Y-101610000D02*
X185770000Y-101610000D01*
X185770000Y-101610000D02*
X185590000Y-101430000D01*
%TO.N,Net-(U3D--)*%
X192415000Y-91210000D02*
X185650000Y-91210000D01*
X185650000Y-91210000D02*
X185590000Y-91270000D01*
X192415000Y-95210000D02*
X192415000Y-91210000D01*
%TO.N,Net-(R14-Pad1)*%
X101135000Y-88265000D02*
X101600000Y-88730000D01*
X91440000Y-88265000D02*
X101135000Y-88265000D01*
%TO.N,Net-(R15-Pad1)*%
X91800000Y-76730000D02*
X102700000Y-87630000D01*
X102700000Y-87630000D02*
X102700000Y-102870000D01*
X102700000Y-102870000D02*
X101600000Y-103970000D01*
X89485000Y-76730000D02*
X91800000Y-76730000D01*
%TO.N,Net-(R16-Pad1)*%
X103100000Y-79185000D02*
X103100000Y-97850000D01*
X103100000Y-97850000D02*
X109220000Y-103970000D01*
X100915000Y-77000000D02*
X100215000Y-77000000D01*
X100915000Y-77000000D02*
X103100000Y-79185000D01*
%TO.N,Net-(R17-Pad1)*%
X112345000Y-77000000D02*
X112345000Y-85605000D01*
X112345000Y-85605000D02*
X109220000Y-88730000D01*
%TO.N,Net-(R18-Pad1)*%
X126315000Y-77270000D02*
X126315000Y-80850000D01*
X126315000Y-80850000D02*
X134195000Y-88730000D01*
%TO.N,Net-(R19-Pad1)*%
X137745000Y-100420000D02*
X134195000Y-103970000D01*
X137745000Y-76730000D02*
X137745000Y-100420000D01*
%TO.N,Net-(R20-Pad1)*%
X138415000Y-100570000D02*
X141815000Y-103970000D01*
X138415000Y-87410000D02*
X138415000Y-97590000D01*
X149175000Y-76730000D02*
X138415000Y-87490000D01*
X138415000Y-87490000D02*
X138415000Y-97590000D01*
X138415000Y-97590000D02*
X138415000Y-100570000D01*
%TO.N,Net-(R21-Pad1)*%
X160605000Y-77000000D02*
X153545000Y-77000000D01*
X153545000Y-77000000D02*
X141815000Y-88730000D01*
%TO.N,Net-(R22-Pad1)*%
X174575000Y-85335000D02*
X177970000Y-88730000D01*
X174575000Y-76730000D02*
X174575000Y-85335000D01*
%TO.N,Net-(R23-Pad1)*%
X180948333Y-100991667D02*
X177970000Y-103970000D01*
X180948333Y-81786667D02*
X180948333Y-100991667D01*
X186005000Y-76730000D02*
X180948333Y-81786667D01*
%TO.N,Net-(R24-Pad1)*%
X197435000Y-76730000D02*
X189085000Y-76730000D01*
X182195000Y-100575000D02*
X185590000Y-103970000D01*
X189085000Y-76730000D02*
X182195000Y-83620000D01*
X182195000Y-83620000D02*
X182195000Y-100575000D01*
%TO.N,Net-(R25-Pad1)*%
X200765635Y-76730000D02*
X188765635Y-88730000D01*
X188765635Y-88730000D02*
X185590000Y-88730000D01*
X210135000Y-76730000D02*
X200765635Y-76730000D01*
%TO.N,Vin*%
X177970000Y-93810000D02*
X176870000Y-94910000D01*
X140715000Y-97790000D02*
X140715000Y-94910000D01*
X177970000Y-98890000D02*
X177550000Y-99310000D01*
X185590000Y-93810000D02*
X186690000Y-94910000D01*
X100500000Y-94910000D02*
X100500000Y-97790000D01*
X186690000Y-97790000D02*
X185590000Y-98890000D01*
X109220000Y-93810000D02*
X108120000Y-94910000D01*
X108120000Y-97790000D02*
X109220000Y-98890000D01*
X176870000Y-97790000D02*
X177970000Y-98890000D01*
X141815000Y-98890000D02*
X140715000Y-97790000D01*
X186690000Y-94910000D02*
X186690000Y-97790000D01*
X101600000Y-93810000D02*
X100500000Y-94910000D01*
X135295000Y-97790000D02*
X134195000Y-98890000D01*
X100500000Y-97790000D02*
X101600000Y-98890000D01*
X134195000Y-93810000D02*
X135295000Y-94910000D01*
X135295000Y-94910000D02*
X135295000Y-97790000D01*
X140715000Y-94910000D02*
X141815000Y-93810000D01*
X108120000Y-94910000D02*
X108120000Y-97790000D01*
X176870000Y-94910000D02*
X176870000Y-97790000D01*
%TO.N,-Vcc*%
X185590000Y-96350000D02*
X185830000Y-96110000D01*
X86995000Y-103585000D02*
X86995000Y-102075000D01*
X86995000Y-102075000D02*
X75565000Y-90645000D01*
%TO.N,+Vcc*%
X75565000Y-95645000D02*
X86995000Y-107075000D01*
X86995000Y-107075000D02*
X86995000Y-108585000D01*
%TO.N,Vtop*%
X91440000Y-91980000D02*
X81900000Y-91980000D01*
X81900000Y-91980000D02*
X75565000Y-85645000D01*
%TO.N,Vbottom*%
X192415000Y-89210000D02*
X192415000Y-86985000D01*
X192415000Y-86985000D02*
X194310000Y-85090000D01*
%TD*%
M02*
