M48
; DRILL file {KiCad 8.0.3} date 2024-07-16T13:59:55-0600
; FORMAT={-:-/ absolute / inch / decimal}
; #@! TF.CreationDate,2024-07-16T13:59:55-06:00
; #@! TF.GenerationSoftware,Kicad,Pcbnew,8.0.3
; #@! TF.FileFunction,Plated,1,2,PTH
FMAT,2
INCH
; #@! TA.AperFunction,Plated,PTH,ViaDrill
T1C0.0118
; #@! TA.AperFunction,Plated,PTH,ComponentDrill
T2C0.0315
; #@! TA.AperFunction,Plated,PTH,ComponentDrill
T3C0.0354
; #@! TA.AperFunction,Plated,PTH,ComponentDrill
T4C0.0394
; #@! TA.AperFunction,Plated,PTH,ComponentDrill
T5C0.0512
; #@! TA.AperFunction,Plated,PTH,ComponentDrill
T6C0.1260
%
G90
G05
T1
X7.673Y-3.4921
T2
X3.5598Y-3.4933
X3.5598Y-3.5933
X3.5598Y-3.6933
X3.5598Y-3.7933
X3.5598Y-3.8933
X3.5598Y-3.9933
X3.5598Y-4.0933
X3.8598Y-3.4933
X3.8598Y-3.5933
X3.8598Y-3.6933
X3.8598Y-3.7933
X3.8598Y-3.8933
X3.8598Y-3.9933
X3.8598Y-4.0933
X5.2833Y-3.4933
X5.2833Y-3.5933
X5.2833Y-3.6933
X5.2833Y-3.7933
X5.2833Y-3.8933
X5.2833Y-3.9933
X5.2833Y-4.0933
X5.5833Y-3.4933
X5.5833Y-3.5933
X5.5833Y-3.6933
X5.5833Y-3.7933
X5.5833Y-3.8933
X5.5833Y-3.9933
X5.5833Y-4.0933
X7.0067Y-3.4933
X7.0067Y-3.5933
X7.0067Y-3.6933
X7.0067Y-3.7933
X7.0067Y-3.8933
X7.0067Y-3.9933
X7.0067Y-4.0933
X7.3067Y-3.4933
X7.3067Y-3.5933
X7.3067Y-3.6933
X7.3067Y-3.7933
X7.3067Y-3.8933
X7.3067Y-3.9933
X7.3067Y-4.0933
T3
X2.923Y-2.6539
X3.023Y-2.6539
X3.4003Y-2.6539
X3.5003Y-2.6539
X3.8776Y-2.6539
X3.9776Y-2.6539
X4.3548Y-2.6539
X4.4548Y-2.6539
X4.8321Y-2.6539
X4.9321Y-2.6539
X5.3094Y-2.6539
X5.4094Y-2.6539
X5.7867Y-2.6539
X5.8867Y-2.6539
X6.2639Y-2.6539
X6.3639Y-2.6539
X6.7412Y-2.6539
X6.8412Y-2.6539
X7.2185Y-2.6539
X7.3185Y-2.6539
X7.6958Y-2.6539
X7.7958Y-2.6539
X8.173Y-2.6539
X8.273Y-2.6539
T4
X3.0031Y-4.2
X3.2Y-4.2
T5
X2.975Y-3.0
X2.975Y-3.2
X2.975Y-3.4
X2.975Y-3.6
X2.975Y-3.8
T6
X2.75Y-2.25
X2.75Y-4.25
X8.15Y-2.25
X8.15Y-4.25
M30
